<svg xmlns="http://www.w3.org/2000/svg" viewBox="0 0 220 48" fill="none">
  <!-- Icon box -->
  <rect width="48" height="48" rx="12" fill="url(#grad)"/>
  <defs>
    <linearGradient id="grad" x1="0" y1="0" x2="48" y2="48" gradientUnits="userSpaceOnUse">
      <stop offset="0%" stop-color="#10B981"/>
      <stop offset="100%" stop-color="#047857"/>
    </linearGradient>
  </defs>
  <!-- Price tag icon -->
  <path fill-rule="evenodd" clip-rule="evenodd" fill="white"
    d="M36.5 10H16C13.8 10 12 11.8 12 14V34C12 36.2 13.8 38 16 38H36.5L44 24L36.5 10ZM39.1 24C39.1 22.5 37.9 21.3 36.4 21.3C34.9 21.3 33.7 22.5 33.7 24C33.7 25.5 34.9 26.7 36.4 26.7C37.9 26.7 39.1 25.5 39.1 24Z"/>
  <!-- Wordmark -->
  <text x="60" y="17" font-family="'Plus Jakarta Sans', Inter, system-ui, sans-serif" font-size="10" font-weight="600" letter-spacing="2" fill="#9CA3AF" text-transform="uppercase">FREE FOR</text>
  <text x="60" y="36" font-family="'Plus Jakarta Sans', Inter, system-ui, sans-serif" font-size="20" font-weight="800" letter-spacing="-0.4" fill="#111827">Non</text>
  <text x="109" y="36" font-family="'Plus Jakarta Sans', Inter, system-ui, sans-serif" font-size="20" font-weight="800" letter-spacing="-0.4" fill="#10B981">Profits</text>
</svg>
